<?xml version="1.0" encoding="utf-8"?>
<!-- Generator: Adobe Illustrator 16.0.0, SVG Export Plug-In . SVG Version: 6.00 Build 0)  -->
<!DOCTYPE svg PUBLIC "-//W3C//DTD SVG 1.1//EN" "http://www.w3.org/Graphics/SVG/1.1/DTD/svg11.dtd">
<svg version="1.1" id="Layer_1" xmlns="http://www.w3.org/2000/svg" xmlns:xlink="http://www.w3.org/1999/xlink" x="0px" y="0px"
	 width="120px" height="120px" viewBox="0 0 120 120" enable-background="new 0 0 120 120" xml:space="preserve">
<path fill="#4A629E" d="M120,60c0,33.137-26.863,60-60,60S0,93.137,0,60S24.864,0,60,0C93.137,0,120,26.863,120,60z"/>
<path id="f" fill="#FFFFFF" d="M66.08,99.264v-35.82h12.023l1.8-13.959H66.08v-8.913c0-4.041,1.123-6.796,6.917-6.796l7.393-0.003
	V21.288c-1.278-0.17-5.667-0.551-10.771-0.551c-10.657,0-17.954,6.505-17.954,18.452v10.295H39.61v13.959h12.054v35.82H66.08z"/>
</svg>
