<?xml version="1.0" encoding="utf-8"?>
<!-- Generator: Adobe Illustrator 16.0.0, SVG Export Plug-In . SVG Version: 6.00 Build 0)  -->
<!DOCTYPE svg PUBLIC "-//W3C//DTD SVG 1.1//EN" "http://www.w3.org/Graphics/SVG/1.1/DTD/svg11.dtd">
<svg version="1.1" id="Layer_1" xmlns="http://www.w3.org/2000/svg" xmlns:xlink="http://www.w3.org/1999/xlink" x="0px" y="0px"
	 width="120px" height="120px" viewBox="0 0 120 120" enable-background="new 0 0 120 120" xml:space="preserve">
<g>
	<circle fill="#00ACED" cx="60" cy="60" r="60"/>
	<path fill="#FFFFFF" d="M89.75,41.547c-2.189,0.971-4.543,1.627-7.012,1.922c2.52-1.511,4.457-3.902,5.367-6.754
		c-2.359,1.399-4.971,2.415-7.752,2.963c-2.227-2.373-5.398-3.855-8.91-3.855c-6.742,0-12.207,5.466-12.207,12.208
		c0,0.956,0.107,1.888,0.316,2.781c-10.145-0.51-19.139-5.369-25.158-12.754c-1.053,1.802-1.654,3.898-1.654,6.136
		c0,4.235,2.156,7.971,5.43,10.16c-2.002-0.062-3.885-0.612-5.529-1.525c0,0.051,0,0.101,0,0.153c0,5.915,4.209,10.847,9.791,11.968
		c-1.025,0.281-2.104,0.43-3.215,0.43c-0.785,0-1.553-0.076-2.297-0.219c1.553,4.85,6.062,8.379,11.402,8.477
		c-4.178,3.275-9.441,5.227-15.16,5.227c-0.984,0-1.957-0.059-2.912-0.172c5.402,3.463,11.818,5.486,18.713,5.486
		c22.451,0,34.732-18.602,34.732-34.733c0-0.528-0.014-1.056-0.035-1.579C86.043,46.144,88.113,43.994,89.75,41.547z"/>
</g>
</svg>
