<?xml version="1.0" encoding="UTF-8" standalone="no"?>
<svg width="120px" height="120px" viewBox="0 0 120 120" version="1.1" xmlns="http://www.w3.org/2000/svg" xmlns:xlink="http://www.w3.org/1999/xlink" xmlns:sketch="http://www.bohemiancoding.com/sketch/ns">
    <!-- Generator: Sketch 3.1.1 (8761) - http://www.bohemiancoding.com/sketch -->
    <title>social-twitter</title>
    <desc>Created with Sketch.</desc>
    <defs></defs>
    <g id="Page-1" stroke="none" stroke-width="1" fill="none" fill-rule="evenodd" sketch:type="MSPage">
        <g id="social-twitter" sketch:type="MSLayerGroup">
            <g id="Group" sketch:type="MSShapeGroup">
                <circle id="Oval" fill="#AFB0AF" cx="60" cy="60" r="60"></circle>
                <path d="M89.75,41.547 C87.561,42.518 85.207,43.174 82.738,43.469 C85.258,41.958 87.195,39.567 88.105,36.715 C85.746,38.114 83.134,39.13 80.353,39.678 C78.126,37.305 74.955,35.823 71.443,35.823 C64.701,35.823 59.236,41.289 59.236,48.031 C59.236,48.987 59.343,49.919 59.552,50.812 C49.407,50.302 40.413,45.443 34.394,38.058 C33.341,39.86 32.74,41.956 32.74,44.194 C32.74,48.429 34.896,52.165 38.17,54.354 C36.168,54.292 34.285,53.742 32.641,52.829 L32.641,52.982 C32.641,58.897 36.85,63.829 42.432,64.95 C41.407,65.231 40.328,65.38 39.217,65.38 C38.432,65.38 37.664,65.304 36.92,65.161 C38.473,70.011 42.982,73.54 48.322,73.638 C44.144,76.913 38.881,78.865 33.162,78.865 C32.178,78.865 31.205,78.806 30.25,78.693 C35.652,82.156 42.068,84.179 48.963,84.179 C71.414,84.179 83.695,65.577 83.695,49.446 C83.695,48.918 83.681,48.39 83.66,47.867 C86.043,46.144 88.113,43.994 89.75,41.547 L89.75,41.547 Z" id="Shape" fill="#FFFFFF"></path>
            </g>
        </g>
    </g>
</svg>