<?xml version="1.0" encoding="UTF-8" standalone="no"?>
<svg width="394px" height="90px" viewBox="0 0 394 90" version="1.1" xmlns="http://www.w3.org/2000/svg" xmlns:xlink="http://www.w3.org/1999/xlink" xmlns:sketch="http://www.bohemiancoding.com/sketch/ns">
    <!-- Generator: Sketch 3.1.1 (8761) - http://www.bohemiancoding.com/sketch -->
    <title>brand</title>
    <desc>Created with Sketch.</desc>
    <defs></defs>
    <g id="Page-1" stroke="none" stroke-width="1" fill="none" fill-rule="evenodd" sketch:type="MSPage">
        <path d="M9.1,60.4 L0.9,60.4 L0.9,2 L19.4,2 C34.3,2 39.5,10.6 39.5,20 C39.5,29.5 34.4,38.1 19.4,38.1 L9.1,38.1 L9.1,60.4 L9.1,60.4 Z M9.1,30.4 L19.6,30.4 C28.9,30.4 30.6,24.7 30.6,20.1 C30.6,15.4 28.9,9.8 19.6,9.8 L9.1,9.8 L9.1,30.4 L9.1,30.4 Z" id="Shape" fill="#AFB0AF" sketch:type="MSShapeGroup"></path>
        <path d="M41.4,60.4 L62.1,1 L67.8,1 L88.5,60.4 L79.6,60.4 L74.6,44.9 L55.3,44.9 L50.4,60.4 L41.4,60.4 L41.4,60.4 Z M65,14.5 L57.7,37.4 L72.2,37.4 L65,14.5 L65,14.5 Z" id="Shape" fill="#AFB0AF" sketch:type="MSShapeGroup"></path>
        <path d="M106.3,60.4 L98.1,60.4 L98.1,2 L117,2 C132,2 136.7,8.5 136.7,19 C136.7,26.6 134.3,32.2 127.1,34.7 C131.4,42.8 136.6,52.4 140.7,60.4 L130.6,60.4 L118.7,36.1 L106.4,36.1 L106.4,60.4 L106.3,60.4 Z M106.3,28.3 L118,28.3 C126.6,28.3 127.8,24.2 127.8,19 C127.8,13.9 126.6,9.8 118,9.8 L106.3,9.8 L106.3,28.3 L106.3,28.3 Z" id="Shape" fill="#AFB0AF" sketch:type="MSShapeGroup"></path>
        <path d="M152.1,60.4 L152.1,2 L160.3,2 L160.3,60.4 L152.1,60.4 L152.1,60.4 Z" id="Shape" fill="#AFB0AF" sketch:type="MSShapeGroup"></path>
        <path d="M181.9,18.2 C181.9,24.5 186.3,25.2 194.1,26.3 C205.9,27.7 212.7,31.5 212.7,43 C212.7,51.2 208.3,61.4 190.6,61.4 C185.3,61.4 177.8,59.8 173.6,57.9 L173.6,49.9 C179,52 182.2,53.6 190.7,53.6 C201.1,53.6 204.2,48.8 204.2,42.9 C204.2,36.6 201.1,35.1 192.7,34 L192.8,34 C178.8,32.2 173.7,28.1 173.7,18 C173.7,11 177,0.9 193.8,0.9 C200.8,0.9 206.1,2.4 209.8,4.1 L209.8,12.4 C203.4,9.4 199.1,8.7 193.8,8.7 C183.9,8.8 181.9,13.2 181.9,18.2 L181.9,18.2 Z" id="Shape" fill="#AFB0AF" sketch:type="MSShapeGroup"></path>
        <path d="M245.3,61.4 C225.8,61.4 223.1,46.5 223.1,31.2 C223.1,16 225.7,1 245.3,1 C264.9,1 267.5,15.9 267.5,31.2 C267.5,46.4 264.9,61.4 245.3,61.4 L245.3,61.4 Z M245.3,8.8 C233.2,8.8 231.5,19.2 231.5,31.2 C231.5,43.3 233.2,53.6 245.3,53.6 C257.4,53.6 259.1,43.3 259.1,31.2 C259.1,19.1 257.4,8.8 245.3,8.8 L245.3,8.8 Z" id="Shape" fill="#AFB0AF" sketch:type="MSShapeGroup"></path>
        <path d="M309.7,52.6 L303.5,52.6 L287.2,15 L287.6,60.4 L279.6,60.4 L279.6,2 L289.5,2 L306.6,42 L323.7,2 L333.6,2 L333.6,60.4 L325.6,60.4 L326,15 L309.7,52.6 L309.7,52.6 Z" id="Shape" fill="#AFB0AF" sketch:type="MSShapeGroup"></path>
        <path d="M343.3,60.4 L364,1 L369.7,1 L390.4,60.4 L381.5,60.4 L376.5,44.9 L357.2,44.9 L352.3,60.4 L343.3,60.4 L343.3,60.4 Z M366.8,14.5 L359.5,37.4 L374,37.4 L366.8,14.5 L366.8,14.5 Z" id="Shape" fill="#AFB0AF" sketch:type="MSShapeGroup"></path>
        <g id="Group" sketch:type="MSLayerGroup" transform="translate(212.000000, 70.000000)" fill="#BCBEC0">
            <g transform="translate(0.000000, 4.000000)" id="Shape" sketch:type="MSShapeGroup">
                <path d="M3.9,14.4 L0,4.2 L1.7,4.2 L3.9,10.2 C4.4,11.6 4.7,12.5 4.8,12.9 L4.9,12.9 C5,12.6 5.2,11.9 5.5,10.9 C5.9,9.9 6.7,7.6 7.9,4.2 L9.6,4.2 L5.7,14.4 L3.9,14.4 L3.9,14.4 Z"></path>
                <path d="M11.1,1.4 C11.1,1 11.2,0.8 11.4,0.6 C11.6,0.4 11.8,0.4 12,0.4 C12.2,0.4 12.5,0.5 12.6,0.7 C12.8,0.9 12.9,1.1 12.9,1.5 C12.9,1.8 12.8,2.1 12.6,2.3 C12.4,2.5 12.2,2.6 12,2.6 C11.7,2.6 11.5,2.5 11.4,2.3 C11.2,2 11.1,1.8 11.1,1.4 L11.1,1.4 Z M12.8,14.4 L11.3,14.4 L11.3,4.2 L12.8,4.2 L12.8,14.4 L12.8,14.4 Z"></path>
                <path d="M22.3,14.4 L22,13 L21.9,13 C21.4,13.6 20.9,14.1 20.4,14.3 C19.9,14.5 19.3,14.6 18.5,14.6 C17.5,14.6 16.7,14.3 16.1,13.8 C15.5,13.3 15.2,12.5 15.2,11.6 C15.2,9.5 16.8,8.5 20.1,8.4 L21.8,8.3 L21.8,7.7 C21.8,6.9 21.6,6.3 21.3,5.9 C21,5.5 20.4,5.3 19.7,5.3 C18.9,5.3 17.9,5.6 16.8,6.1 L16.3,4.9 C16.8,4.6 17.3,4.4 17.9,4.3 C18.5,4.1 19.1,4.1 19.7,4.1 C20.9,4.1 21.8,4.4 22.4,4.9 C23,5.4 23.3,6.3 23.3,7.5 L23.3,14.4 L22.3,14.4 L22.3,14.4 Z M18.8,13.3 C19.8,13.3 20.5,13 21.1,12.5 C21.6,12 21.9,11.2 21.9,10.3 L21.9,9.4 L20.4,9.5 C19.2,9.5 18.3,9.7 17.8,10.1 C17.3,10.4 17,11 17,11.7 C17,12.3 17.2,12.7 17.5,13 C17.7,13.1 18.2,13.3 18.8,13.3 L18.8,13.3 Z"></path>
            </g>
            <g transform="translate(34.000000, 0.000000)" id="Shape" sketch:type="MSShapeGroup">
                <path d="M9.5,10.7 L2.2,10.7 L2.2,18.8 L-0.3,18.8 L-0.3,0.8 L10.3,0.8 L10.3,3.2 L2.2,3.2 L2.2,8.3 L9.5,8.3 L9.5,10.7 L9.5,10.7 Z"></path>
                <path d="M28.2,0.8 L34.1,0.8 C38.4,0.8 39.9,3 39.9,5.7 C39.9,7 39.3,8.4 38.1,9.3 C39.7,10.1 40.4,11.8 40.4,13.6 C40.4,16.5 38.8,18.8 34.2,18.8 L28.2,18.8 L28.2,0.8 L28.2,0.8 Z M34.2,3.2 L30.8,3.2 L30.8,8.3 L34.4,8.3 C36.6,8.3 37.2,7 37.2,5.8 C37.2,4.4 36.7,3.2 34.2,3.2 L34.2,3.2 Z M30.8,16.4 L34.4,16.4 C37.2,16.4 37.8,15 37.8,13.6 C37.8,11.6 36.9,10.7 34.5,10.7 L30.9,10.7 L30.9,16.4 L30.8,16.4 Z"></path>
                <path d="M52.9,10.7 L45.4,10.7 L45.4,16.4 L53.7,16.4 L53.7,18.8 L42.9,18.8 L42.9,0.8 L53.7,0.8 L53.7,3.2 L45.4,3.2 L45.4,8.3 L52.9,8.3 L52.9,10.7 L52.9,10.7 Z"></path>
                <path d="M59.9,18.8 L57.4,18.8 L57.4,0.8 L63.2,0.8 C67.8,0.8 69.3,2.8 69.3,6 C69.3,8.4 68.6,10.1 66.3,10.9 C67.6,13.4 69.2,16.4 70.5,18.8 L67.4,18.8 L63.7,11.3 L59.9,11.3 L59.9,18.8 L59.9,18.8 Z M59.9,8.9 L63.5,8.9 C66.1,8.9 66.5,7.6 66.5,6 C66.5,4.4 66.1,3.2 63.5,3.2 L59.9,3.2 L59.9,8.9 L59.9,8.9 Z"></path>
                <path d="M84.9,18.8 L76.5,5.7 L76.5,18.8 L74,18.8 L74,0.8 L76,0.8 L84.4,13.9 L84.4,0.8 L86.8,0.8 L86.8,18.8 L84.9,18.8 L84.9,18.8 Z"></path>
                <path d="M96.1,19.1 C90.1,19.1 89.3,14.5 89.3,9.8 C89.3,5.1 90.1,0.5 96.1,0.5 C102.2,0.5 102.9,5.1 102.9,9.8 C103,14.5 102.2,19.1 96.1,19.1 L96.1,19.1 Z M96.1,2.9 C92.4,2.9 91.8,6.1 91.8,9.8 C91.8,13.5 92.3,16.7 96.1,16.7 C99.8,16.7 100.4,13.5 100.4,9.8 C100.4,6.1 99.8,2.9 96.1,2.9 L96.1,2.9 Z"></path>
                <path d="M132.1,10.7 L124.6,10.7 L124.6,16.4 L132.9,16.4 L132.9,18.8 L122,18.8 L122,0.8 L132.8,0.8 L132.8,3.2 L124.5,3.2 L124.5,8.3 L132,8.3 L132,10.7 L132.1,10.7 Z"></path>
                <path d="M139.1,16.4 L147,16.4 L147,18.8 L136.6,18.8 L136.6,0.8 L139.1,0.8 L139.1,16.4 L139.1,16.4 Z"></path>
                <path d="M16.8,0.7 L19.5,0.7 L25.8,18.8 L23.1,18.8 L16.8,0.7 L16.8,0.7 Z"></path>
                <path d="M113.3,18.8 L110.6,18.8 L104.3,0.7 L107,0.7 L113.3,18.8 L113.3,18.8 Z"></path>
                <path d="M16.8,0.7 L10.5,18.8 L13.2,18.8 L19.5,0.7 L16.8,0.7 Z"></path>
                <path d="M113.4,18.8 L110.7,18.8 L117,0.7 L119.7,0.7 L113.4,18.8 L113.4,18.8 Z"></path>
            </g>
        </g>
    </g>
</svg>